<svg width="40" height="40" viewBox="0 0 35 35" fill="none" xmlns="http://www.w3.org/2000/svg">
<path d="M14.6667 3.4C14.6667 4.30174 14.2804 5.16654 13.5927 5.80416C12.9051 6.44179 11.9725 6.8 11 6.8C10.0275 6.8 9.09491 6.44179 8.40728 5.80416C7.71964 5.16654 7.33333 4.30174 7.33333 3.4C7.33333 2.49826 7.71964 1.63346 8.40728 0.995837C9.09491 0.358213 10.0275 0 11 0C11.9725 0 12.9051 0.358213 13.5927 0.995837C14.2804 1.63346 14.6667 2.49826 14.6667 3.4ZM20.7778 5.66667C20.7778 6.26782 20.5202 6.84436 20.0618 7.26944C19.6034 7.69452 18.9816 7.93333 18.3333 7.93333C17.685 7.93333 17.0633 7.69452 16.6049 7.26944C16.1464 6.84436 15.8889 6.26782 15.8889 5.66667C15.8889 5.06551 16.1464 4.48897 16.6049 4.06389C17.0633 3.63881 17.685 3.4 18.3333 3.4C18.9816 3.4 19.6034 3.63881 20.0618 4.06389C20.5202 4.48897 20.7778 5.06551 20.7778 5.66667ZM15.8889 13.6C15.8889 12.3977 15.3738 11.2446 14.457 10.3944C13.5401 9.54428 12.2966 9.06667 11 9.06667C9.70339 9.06667 8.45988 9.54428 7.54303 10.3944C6.62619 11.2446 6.11111 12.3977 6.11111 13.6V17H15.8889V13.6ZM6.11111 5.66667C6.11111 6.26782 5.85357 6.84436 5.39515 7.26944C4.93673 7.69452 4.31497 7.93333 3.66667 7.93333C3.01836 7.93333 2.39661 7.69452 1.93818 7.26944C1.47976 6.84436 1.22222 6.26782 1.22222 5.66667C1.22222 5.06551 1.47976 4.48897 1.93818 4.06389C2.39661 3.63881 3.01836 3.4 3.66667 3.4C4.31497 3.4 4.93673 3.63881 5.39515 4.06389C5.85357 4.48897 6.11111 5.06551 6.11111 5.66667ZM18.3333 17V13.6C18.3351 12.4477 18.0196 11.3141 17.4167 10.3065C17.9585 10.1779 18.5249 10.1658 19.0726 10.2711C19.6203 10.3763 20.1348 10.5962 20.5769 10.9139C21.0191 11.2316 21.3771 11.6387 21.6237 12.1042C21.8703 12.5698 21.999 13.0813 22 13.6V17H18.3333ZM4.58333 10.3065C3.98047 11.3141 3.66495 12.4477 3.66667 13.6V17H3.24769e-07V13.6C-0.000235239 13.081 0.127677 12.5688 0.373935 12.1027C0.620193 11.6366 0.978259 11.229 1.42069 10.9111C1.86312 10.5932 2.37818 10.3734 2.92638 10.2686C3.47458 10.1638 4.04138 10.1768 4.58333 10.3065Z" fill="white"/>
</svg>
