<svg width="41" height="32" viewBox="0 0 41 32" fill="none" xmlns="http://www.w3.org/2000/svg">
<path d="M11.146 13.3333C9.10499 13.3333 7.43457 11.6526 7.43457 9.57632C7.43457 7.50006 9.10509 5.81934 11.146 5.81934C13.187 5.81934 14.8574 7.50015 14.8574 9.57632C14.8574 11.6526 13.187 13.3333 11.146 13.3333ZM11.146 6.51911C9.46987 6.51911 8.11627 7.89515 8.11627 9.57621C8.11627 11.2573 9.46987 12.6333 11.146 12.6333C12.8221 12.6333 14.1757 11.2573 14.1757 9.57621C14.1757 7.89515 12.8221 6.51911 11.146 6.51911Z" fill="#1EB3A6" stroke="#1EB3A6"/>
<path d="M26.9887 12.9964L31.912 7.65592C32.2287 7.31277 32.7608 7.29362 33.1005 7.61354C33.4402 7.93368 33.4589 8.47153 33.1424 8.81491L26.9887 12.9964ZM26.9887 12.9964C26.64 12.7367 26.2165 12.5968 25.7725 12.6068L26.9887 12.9964ZM27.2071 14.8246L27.2072 14.8246L27.2174 14.8341C27.4421 15.0381 27.508 15.2822 27.5158 15.4578M27.2071 14.8246L27.0162 15.48M27.2071 14.8246L26.3897 14.0483L26.3897 14.0482L26.3849 14.0438L26.3849 14.0438L26.3801 14.039L27.2071 14.8246ZM27.5158 15.4578L27.0162 15.48M27.5158 15.4578C27.5158 15.4578 27.5157 15.4578 27.5157 15.4578L27.0162 15.48M27.5158 15.4578C27.5265 15.7001 27.4365 15.9255 27.2768 16.0978L27.2779 16.0966L26.9093 15.7589M27.0162 15.48C27.0207 15.5809 26.9843 15.6783 26.9093 15.7589M26.9093 15.7589L27.2753 16.0995M26.9093 15.7589L27.2753 16.0995M27.2753 16.0995L26.6223 16.8122L26.2788 17.187L25.9097 16.8373L24.5091 15.5102L24.1485 15.1685L24.4879 14.8057L25.1555 14.0919L25.5217 14.4324L25.1565 14.0908L25.156 14.0913L27.2753 16.0995ZM26.2536 16.4744L25.8907 16.1304L25.885 16.1366L26.2536 16.4744ZM26.2536 16.4744L26.5976 16.1115L26.5915 16.1057L26.2536 16.4744ZM38.56 25.7339V26.2339H39.06H40.1591C40.3424 26.2339 40.5 26.3854 40.5 26.5839V29.0093C40.5 29.2077 40.3424 29.3592 40.1591 29.3592H16.9995H16.4995V29.8592V30.7654C16.4995 30.9638 16.3419 31.1153 16.1586 31.1153H5.8661C5.68281 31.1153 5.52525 30.9638 5.52525 30.7654V29.8592V29.3592H5.02525H0.840849C0.657565 29.3592 0.5 29.2077 0.5 29.0093V26.5839C0.5 26.3855 0.657609 26.2339 0.840849 26.2339H1.93989H2.43989V25.7339V1.36655C2.43989 1.16814 2.59753 1.0166 2.78074 1.0166H38.2191C38.4024 1.0166 38.56 1.16814 38.56 1.36655V25.7339ZM5.02525 28.6593H5.52525V28.1593V27.4338V26.9338H5.02525H1.6817H1.1817V27.4338V28.1593V28.6593H1.6817H5.02525ZM5.02525 26.2339H5.52525V25.7339V16.7369C5.52525 15.4902 6.52793 14.4845 7.74792 14.4844C7.74793 14.4844 7.74794 14.4844 7.74795 14.4844H16.0586C16.5497 14.4844 17.0304 14.651 17.4185 14.9552L17.4374 14.9726C17.4589 14.9925 17.4902 15.0217 17.5302 15.0592C17.6101 15.1341 17.7229 15.2401 17.8576 15.3671C18.1271 15.621 18.4835 15.9574 18.8391 16.2934C19.1946 16.6293 19.5492 16.9645 19.8148 17.2157L20.1357 17.5192L20.2255 17.6041L20.2492 17.6265L20.2552 17.6322L20.2568 17.6337L20.2571 17.634L20.2572 17.6341L20.6009 17.271L20.2573 17.6342L20.6249 17.982L20.9683 17.6101L24.664 13.6068C24.6643 13.6065 24.6645 13.6063 24.6647 13.606C24.953 13.2962 25.3619 13.1136 25.7807 13.1067L25.7837 13.1067C26.1139 13.0993 26.4287 13.2028 26.69 13.3974L27.0511 13.6664L27.3563 13.3353L32.2794 7.99504C32.2794 7.99501 32.2795 7.99499 32.2795 7.99496C32.408 7.85578 32.6209 7.84879 32.7576 7.97741C32.8977 8.10943 32.9058 8.33386 32.7748 8.476C32.7748 8.47601 32.7748 8.47603 32.7748 8.47604L27.8461 13.8223L27.5495 14.144L27.829 14.4806C28.0525 14.7497 28.1813 15.0766 28.1967 15.4262C28.2157 15.8556 28.0659 16.2629 27.7727 16.5781L27.771 16.58L21.0559 23.8739L21.0558 23.8739C20.9925 23.9427 20.9053 23.9815 20.8145 23.9831L20.8145 23.983L20.8055 23.9834C20.8051 23.9834 20.7845 23.9853 20.7463 23.9757C20.7093 23.9665 20.6471 23.9442 20.5705 23.8859L17.3325 20.9951L16.4995 20.2514V21.368V25.7339V26.2339H16.9995H37.3784H37.8784V25.7339V2.21649V1.71649H37.3784H3.62159H3.12159V2.21649V25.7339V26.2339H3.62159H5.02525ZM16.3821 19.219L16.3823 19.2192L20.4177 22.822L20.7848 23.1498L21.1184 22.7879L25.4769 18.0588L25.8111 17.6962L25.4531 17.357L24.0475 16.0252L23.6786 15.6756L23.3351 16.0502L20.8909 18.7157L21.2595 19.0536L20.8909 18.7157C20.8287 18.7835 20.7435 18.8223 20.655 18.8254L20.6517 18.8255C20.5665 18.8291 20.4797 18.7974 20.4119 18.7331L20.4117 18.7329L17.0691 15.5658L17.0586 15.5552L17.0403 15.54C16.8482 15.38 16.5175 15.1844 16.0588 15.1844H7.74792C6.89259 15.1844 6.20694 15.8856 6.20694 16.7369V29.9154V30.4154H6.70694H15.3178H15.8178V29.9154V19.4832C15.8178 19.3428 15.8991 19.2188 16.0202 19.1634C16.1409 19.1085 16.282 19.1296 16.3821 19.219ZM39.3183 28.6593H39.8183V28.1593V27.4338V26.9338H39.3183H16.9995H16.4995V27.4338V28.1593V28.6593H16.9995H39.3183Z" fill="#1EB3A6" stroke="#1EB3A6"/>
</svg>
