<svg width="30" height="30" viewBox="0 0 46 46" fill="none" xmlns="http://www.w3.org/2000/svg">
<g filter="url(#filter0_d_78_313)">
<path d="M27.92 25.4697C29.33 25.4697 30.46 26.6107 30.46 28.0307V31.4397C30.46 32.8497 29.33 33.9997 27.92 33.9997H24.54C23.14 33.9997 22 32.8497 22 31.4397V28.0307C22 26.6107 23.14 25.4697 24.54 25.4697H27.92ZM39.4601 25.4697C40.8601 25.4697 42.0001 26.6107 42.0001 28.0307V31.4397C42.0001 32.8497 40.8601 33.9997 39.4601 33.9997H36.0801C34.6701 33.9997 33.5401 32.8497 33.5401 31.4397V28.0307C33.5401 26.6107 34.6701 25.4697 36.0801 25.4697H39.4601ZM27.92 14C29.33 14 30.46 15.15 30.46 16.561V19.97C30.46 21.39 29.33 22.53 27.92 22.53H24.54C23.14 22.53 22 21.39 22 19.97V16.561C22 15.15 23.14 14 24.54 14H27.92ZM39.4601 14C40.8601 14 42.0001 15.15 42.0001 16.561V19.97C42.0001 21.39 40.8601 22.53 39.4601 22.53H36.0801C34.6701 22.53 33.5401 21.39 33.5401 19.97V16.561C33.5401 15.15 34.6701 14 36.0801 14H39.4601Z" fill="white"/>
</g>
<defs>
<filter id="filter0_d_78_313" x="0" y="0" width="64" height="64" filterUnits="userSpaceOnUse" color-interpolation-filters="sRGB">
<feFlood flood-opacity="0" result="BackgroundImageFix"/>
<feColorMatrix in="SourceAlpha" type="matrix" values="0 0 0 0 0 0 0 0 0 0 0 0 0 0 0 0 0 0 127 0" result="hardAlpha"/>
<feOffset dy="8"/>
<feGaussianBlur stdDeviation="11"/>
<feComposite in2="hardAlpha" operator="out"/>
<feColorMatrix type="matrix" values="0 0 0 0 0.0528125 0 0 0 0 0.747461 0 0 0 0 0.922188 0 0 0 0.18 0"/>
<feBlend mode="normal" in2="BackgroundImageFix" result="effect1_dropShadow_78_313"/>
<feBlend mode="normal" in="SourceGraphic" in2="effect1_dropShadow_78_313" result="shape"/>
</filter>
</defs>
</svg>
