<svg width="34" height="36" viewBox="0 0 34 36" fill="none" xmlns="http://www.w3.org/2000/svg">
<path d="M20.5006 18.9995L20.5008 19L20.5008 19.0001L20.5009 19.0001L20.5009 19.0001L20.5009 19.0001L20.5009 19L20.5009 19L20.5006 18.9995ZM20.5006 18.9995C20.4328 18.8079 20.3461 18.6247 20.2424 18.4524C20.3463 18.6248 20.4331 18.8082 20.5009 19L20.5006 18.9995ZM16.6719 17L17.6716 17L16.6719 17.0002V17V17ZM15.6719 29H16.6719V29L15.6719 29ZM13.3162 27.8581C13.4292 28.0012 13.555 28.1338 13.6919 28.2541C13.5545 28.1335 13.4288 28.0009 13.3162 27.8581Z" fill="#1EB3A6" stroke="#1EB3A6" stroke-width="2"/>
<path d="M16.4319 4.439C14.5919 4.972 12.4359 4.914 10.2859 4.518C10.0043 4.46588 9.72414 4.40824 9.44614 4.3458L16.4319 4.439ZM16.4319 4.439C17.806 4.03868 19.1952 3.69314 20.5962 3.40312L16.4319 4.439ZM23.1156 3.95613C24.1467 3.79406 25.1458 3.67549 26.089 3.60758L27.1278 3.53279C27.1132 3.52554 27.0985 3.51827 27.0838 3.51098C27.0827 3.51044 27.0816 3.50991 27.0805 3.50937L26.9491 3.4456C26.9491 3.44559 26.9491 3.44559 26.9491 3.44558C24.597 2.30375 20.8286 1 16.7109 1M23.1156 3.95613L16.7099 1C16.7102 1 16.7105 1 16.7109 1M23.1156 3.95613C23.1173 3.95584 23.1191 3.95556 23.1208 3.95528L23.2502 2.01046C21.3398 1.43527 19.0894 1.00012 16.7109 1M23.1156 3.95613L16.7109 1M27.848 3.90976C27.8481 3.90982 27.8482 3.90987 27.8483 3.90992L24.7525 8.43539L24.2892 9.11266L24.6256 9.45656L24.0082 9.69531C23.8527 9.75544 23.6961 9.81352 23.5385 9.86957L23.2039 8.928L24.0292 9.49257L26.9862 5.16957L27.848 3.90976ZM25.0944 9.93977L25.0034 9.84393C27.0089 11.9253 28.8971 14.5561 30.2566 17.3311C31.6523 20.18 32.4561 23.1094 32.3245 25.7128C32.195 28.2745 31.1651 30.5334 28.8254 32.1863C26.6082 33.7527 23.1259 34.8369 17.9143 34.9807C23.1249 34.8368 26.6075 33.7528 28.8239 32.1867L28.824 32.1866C31.1633 30.5333 32.1939 28.2753 32.3236 25.7125L32.3236 25.7124C32.4551 23.1093 31.6511 20.1792 30.2548 17.3308L30.2529 17.3269C28.9117 14.6209 27.1729 12.1309 25.0944 9.93977ZM9.27961 9.48784L9.46008 9.75357C9.41068 9.73498 9.36138 9.71618 9.3122 9.69718L8.95186 10.63L8.21981 9.95082C8.30155 9.86269 8.38352 9.77538 8.4657 9.68891L9.02004 9.10566L9.27961 9.48784ZM5.86733 4.46361L6.52265 5.4285L5.49529 3.91685C5.5332 3.89625 5.57177 3.87549 5.61102 3.85458L5.61102 3.85459L5.61446 3.85274C5.81446 3.74519 6.03069 3.6342 6.26321 3.5208L6.4727 3.41863C6.76531 3.2792 7.0789 3.13752 7.41147 2.99624L7.80186 3.916L7.51671 4.87448C8.3468 5.12144 9.21732 5.33716 10.1038 5.50129L10.1047 5.50146C12.3373 5.91267 14.6648 5.99199 16.7101 5.39951L16.7116 5.39909C17.8457 5.06868 18.9903 4.7763 20.1434 4.52236C19.0006 4.77599 17.8468 5.07154 16.7113 5.40029C14.6661 5.99112 12.3373 5.91322 10.1058 5.5017C9.54575 5.39785 8.98951 5.27424 8.43816 5.13109L5.86733 4.46361Z" fill="#1EB3A6" stroke="#1EB3A6" stroke-width="2"/>
</svg>
