<svg width="18" height="18" viewBox="0 0 22 18" fill="none" xmlns="http://www.w3.org/2000/svg">
<path d="M13 8.99988C12.1667 8.99988 11.4583 8.70821 10.875 8.12488C10.2917 7.54154 10 6.83321 10 5.99988C10 5.16654 10.2917 4.45821 10.875 3.87488C11.4583 3.29154 12.1667 2.99988 13 2.99988C13.8333 2.99988 14.5417 3.29154 15.125 3.87488C15.7083 4.45821 16 5.16654 16 5.99988C16 6.83321 15.7083 7.54154 15.125 8.12488C14.5417 8.70821 13.8333 8.99988 13 8.99988ZM4 11.9999V-0.00012207H22V11.9999H4ZM8 9.99988H18C18 9.44988 18.1957 8.97888 18.587 8.58688C18.979 8.19554 19.45 7.99988 20 7.99988V3.99988C19.45 3.99988 18.979 3.80388 18.587 3.41188C18.1957 3.02054 18 2.54988 18 1.99988H8C8 2.54988 7.804 3.02054 7.412 3.41188C7.02067 3.80388 6.55 3.99988 6 3.99988V7.99988C6.55 7.99988 7.02067 8.19554 7.412 8.58688C7.804 8.97888 8 9.44988 8 9.99988ZM0 15.9999V2.99988H2V13.9999H19V15.9999H0ZM6 9.99988V1.99988V9.99988Z" fill="white"/>
</svg>
