<svg width="18" height="18" viewBox="0 0 20 26" fill="none" xmlns="http://www.w3.org/2000/svg">
<path d="M8.18226 19.3639H15.455V21.182H8.18226V19.3639ZM4.5459 19.3639H6.36408V21.182H4.5459V19.3639ZM8.18226 14.8184H15.455V16.6366H8.18226V14.8184ZM4.5459 14.8184H6.36408V16.6366H4.5459V14.8184ZM8.18226 10.2729H15.455V12.0911H8.18226V10.2729ZM4.5459 10.2729H6.36408V12.0911H4.5459V10.2729Z" fill="white"/>
<path d="M18.1818 3.00022H15.4545V2.09113C15.4545 1.60892 15.263 1.14646 14.922 0.805482C14.581 0.464507 14.1186 0.272949 13.6364 0.272949H6.36364C5.88142 0.272949 5.41896 0.464507 5.07799 0.805482C4.73701 1.14646 4.54545 1.60892 4.54545 2.09113V3.00022H1.81818C1.33597 3.00022 0.873508 3.19178 0.532533 3.53276C0.191558 3.87373 0 4.33619 0 4.8184V23.9093C0 24.3915 0.191558 24.854 0.532533 25.195C0.873508 25.5359 1.33597 25.7275 1.81818 25.7275H18.1818C18.664 25.7275 19.1265 25.5359 19.4675 25.195C19.8084 24.854 20 24.3915 20 23.9093V4.8184C20 4.33619 19.8084 3.87373 19.4675 3.53276C19.1265 3.19178 18.664 3.00022 18.1818 3.00022ZM6.36364 2.09113H13.6364V5.72749H6.36364V2.09113ZM18.1818 23.9093H1.81818V4.8184H4.54545V7.54568H15.4545V4.8184H18.1818V23.9093Z" fill="white"/>
</svg>
