<svg width="18" height="18" viewBox="0 0 25 25" fill="none" xmlns="http://www.w3.org/2000/svg">
<path d="M10.504 8.36854C9.76311 8.36854 9.06927 8.66673 8.54393 9.21169C8.02107 9.75666 7.73115 10.4764 7.73115 11.245C7.73115 12.0136 8.02107 12.7334 8.54393 13.2784C9.06927 13.8208 9.76311 14.1215 10.504 14.1215C11.245 14.1215 11.9388 13.8208 12.4641 13.2784C12.987 12.7334 13.2769 12.0136 13.2769 11.245C13.2769 10.4764 12.987 9.75666 12.4641 9.21169C12.2075 8.94347 11.9021 8.73081 11.5656 8.58607C11.2292 8.44133 10.8683 8.36738 10.504 8.36854ZM20.7208 14.4223L19.1002 12.9853C19.177 12.4969 19.2167 11.9982 19.2167 11.5021C19.2167 11.006 19.177 10.5047 19.1002 10.0189L20.7208 8.5819C20.8433 8.47318 20.9309 8.32838 20.972 8.16675C21.0132 8.00511 21.006 7.83431 20.9513 7.67705L20.929 7.61022C20.483 6.31642 19.8147 5.11715 18.9565 4.07052L18.9119 4.01654C18.8077 3.88943 18.6688 3.79806 18.5135 3.75446C18.3583 3.71087 18.1939 3.7171 18.0421 3.77233L16.03 4.51523C15.2866 3.88287 14.4589 3.38418 13.5619 3.03715L13.1728 0.85472C13.1435 0.690311 13.0666 0.539058 12.9524 0.421056C12.8382 0.303054 12.6921 0.22389 12.5335 0.194079L12.4666 0.181226C11.178 -0.0604087 9.8201 -0.0604087 8.53154 0.181226L8.46463 0.194079C8.30604 0.22389 8.15993 0.303054 8.04574 0.421056C7.93154 0.539058 7.85466 0.690311 7.82531 0.85472L7.43379 3.04743C6.54524 3.39722 5.71751 3.89471 4.98304 4.52037L2.95604 3.77233C2.8043 3.71666 2.63982 3.7102 2.48446 3.75382C2.3291 3.79744 2.19021 3.88908 2.08626 4.01654L2.04165 4.07052C1.18499 5.11827 0.516868 6.31723 0.0691638 7.61022L0.0468617 7.67705C-0.0646484 7.99838 0.0270378 8.35826 0.277316 8.5819L1.91775 10.0343C1.84094 10.5175 1.80376 11.0111 1.80376 11.4995C1.80376 11.9931 1.84094 12.4866 1.91775 12.9647L0.282272 14.4171C0.159848 14.5258 0.0722276 14.6706 0.0310619 14.8323C-0.0101039 14.9939 -0.00286447 15.1647 0.0518176 15.322L0.0741197 15.3888C0.522638 16.6818 1.18426 17.8771 2.04661 18.9285L2.09121 18.9825C2.19542 19.1096 2.33431 19.201 2.48958 19.2446C2.64485 19.2882 2.80921 19.2819 2.96099 19.2267L4.988 18.4787C5.72644 19.1084 6.54914 19.6071 7.43874 19.9516L7.83027 22.1443C7.85962 22.3087 7.9365 22.46 8.05069 22.578C8.16489 22.696 8.31099 22.7751 8.46959 22.8049L8.5365 22.8178C9.83773 23.0607 11.1703 23.0607 12.4716 22.8178L12.5385 22.8049C12.6971 22.7751 12.8432 22.696 12.9574 22.578C13.0716 22.46 13.1484 22.3087 13.1778 22.1443L13.5668 19.9619C14.4639 19.6123 15.2915 19.1162 16.0349 18.4838L18.0471 19.2267C18.1988 19.2824 18.3633 19.2888 18.5186 19.2452C18.674 19.2016 18.8129 19.11 18.9168 18.9825L18.9615 18.9285C19.8238 17.872 20.4854 16.6818 20.9339 15.3888L20.9562 15.322C21.0628 15.0032 20.9711 14.6459 20.7208 14.4223ZM10.504 15.7641C8.09789 15.7641 6.1477 13.7411 6.1477 11.245C6.1477 8.74899 8.09789 6.72594 10.504 6.72594C12.9102 6.72594 14.8604 8.74899 14.8604 11.245C14.8604 13.7411 12.9102 15.7641 10.504 15.7641Z" fill="white"/>
</svg>
