<svg width="39" height="39" viewBox="0 0 39 39" fill="none" xmlns="http://www.w3.org/2000/svg">
<path d="M25.9958 15.7503C25.667 15.0439 24.9566 14.5486 24.1233 14.5486H21.6235C20.7972 14.5486 20.0821 15.0341 19.7487 15.7349C19.4152 15.0341 18.7002 14.5486 17.8738 14.5486H15.3739C14.5405 14.5486 13.8302 15.0439 13.5013 15.7503L12.1193 14.7136L12.1192 14.7135L11.9992 14.8735M25.9958 15.7503L10.9643 14.8784L11.1242 14.9985M25.9958 15.7503L27.3776 14.7138C27.3776 14.7138 27.3776 14.7137 27.3776 14.7137C27.7427 14.4388 28.26 14.5142 28.533 14.8786C28.8067 15.2434 28.7324 15.7605 28.3678 16.0336L26.1491 17.6968C25.9345 18.9703 24.8343 19.9481 23.4983 19.9481H22.2483C21.1201 19.9481 20.1516 19.2531 19.7485 18.2685C19.3454 19.2531 18.377 19.9481 17.2488 19.9481H15.9988C14.6622 19.9481 13.5626 18.9703 13.3481 17.6968L11.1294 16.0336C11.1293 16.0335 11.1293 16.0335 11.1293 16.0335C10.7647 15.7604 10.6904 15.2432 10.9643 14.8785L11.1242 14.9985M25.9958 15.7503L11.2493 15.8735C10.973 15.6666 10.9168 15.2748 11.1242 14.9985M11.9992 14.8735C11.7236 14.6666 11.3311 14.7229 11.1242 14.9985M11.9992 14.8735L13.4234 15.9419L11.9992 14.8735ZM18.2985 17.2483V17.266C18.2891 17.8367 17.8212 18.2983 17.2488 18.2983H15.9988C15.4205 18.2983 14.9489 17.8272 14.9489 17.2483V16.6234C14.9489 16.3894 15.1395 16.1985 15.3738 16.1985H17.8736C18.108 16.1985 18.2985 16.3894 18.2985 16.6234V17.2483ZM21.1984 17.2483V16.6234C21.1984 16.3894 21.389 16.1985 21.6234 16.1985H24.1231C24.3575 16.1985 24.5481 16.3894 24.5481 16.6234V17.2483C24.5481 17.8271 24.0765 18.2983 23.4981 18.2983H22.2482C22.2482 18.2983 22.2482 18.2983 22.2482 18.2983C21.67 18.2982 21.1984 17.8271 21.1984 17.2483Z" fill="#1EB3A6" stroke="#1EB3A6" stroke-width="0.4"/>
<path d="M38.0318 35.1181L38.0337 35.1254L38.6724 37.6708L38.6724 37.671C38.7829 38.1129 38.5143 38.5605 38.0727 38.6714M38.0318 35.1181L0.825073 37.6706L1.01876 37.7194L0.824988 37.671L0.825023 37.6708C0.713712 38.1132 0.983437 38.5605 1.42458 38.6714C1.86678 38.784 2.31505 38.5125 2.42538 38.0718L2.42544 38.0715L3.03474 35.6251C3.36747 34.639 4.43846 33.8507 6.40086 33.3052C8.32653 32.7699 11.0536 32.485 14.617 32.4502C14.7574 33.3384 15.1319 34.3884 15.8867 35.2388C16.6978 36.1525 17.9357 36.8214 19.7486 36.8214C21.5602 36.8214 22.7977 36.1568 23.609 35.2482C24.3639 34.4028 24.7389 33.3589 24.88 32.4753C29.0527 32.5194 31.8618 33.0337 33.6729 33.674C34.5909 33.9985 35.2478 34.3537 35.6953 34.6925C36.1411 35.0301 36.3668 35.3419 36.449 35.58L37.0719 38.0717L37.0719 38.0719C37.166 38.4465 37.5018 38.6963 37.8715 38.6963C37.9362 38.6963 38.0041 38.689 38.0727 38.6714M38.0318 35.1181L38.0295 35.1109M38.0318 35.1181L38.0295 35.1109M38.0727 38.6714C38.0724 38.6714 38.0722 38.6715 38.0719 38.6716L38.0234 38.4775L38.0735 38.6712C38.0732 38.6712 38.0729 38.6713 38.0727 38.6714ZM38.0295 35.1109C37.668 34.0245 35.6681 30.9487 24.9483 30.8282M38.0295 35.1109L24.9483 30.8282M24.9483 30.8282V30.372C24.9483 29.9167 24.5796 29.5471 24.1234 29.5471C23.6672 29.5471 23.2985 29.9167 23.2985 30.372V31.6219C23.2985 31.626 23.2986 31.63 23.2988 31.6338C23.2986 31.6376 23.2985 31.6416 23.2985 31.6457H23.2998C23.3009 31.6551 23.3024 31.663 23.3037 31.6691C23.3049 31.6744 23.3061 31.6788 23.307 31.6816L23.3079 31.6847C23.3074 31.6829 23.3064 31.6795 23.3055 31.6752C23.3039 31.6684 23.3021 31.6583 23.3013 31.6457H23.4985C23.496 32.0269 23.3704 35.3717 19.7488 35.3717C16.1272 35.3717 16.0016 32.0038 15.9991 31.622L24.9483 30.8282ZM16.1991 31.6213C16.2003 31.802 16.2321 32.6989 16.6924 33.5444C16.9213 33.9647 17.2543 34.3692 17.7404 34.6693C18.226 34.9691 18.8755 35.1717 19.7488 35.1717C20.6223 35.1717 21.272 34.9704 21.7576 34.6726C22.2438 34.3745 22.5767 33.9728 22.8054 33.5555C23.266 32.7151 23.2973 31.8234 23.2985 31.6444L23.2997 31.6444L16.1991 31.6213ZM16.1991 31.6213V30.3721C16.1991 29.9168 15.8304 29.5471 15.3742 29.5471C14.918 29.5471 14.5492 29.9168 14.5492 30.3721V30.8051L16.1991 31.6213Z" fill="#1EB3A6" stroke="#1EB3A6" stroke-width="0.4"/>
<path d="M19.6422 6.19258L19.6422 6.19256L5.26843 4.31772C5.26843 4.31772 5.26843 4.31772 5.26842 4.31772C4.85758 4.26415 4.55 3.91361 4.55 3.49946C4.55 3.08528 4.85753 2.73485 5.26839 2.6812L5.26842 2.68119L19.6422 0.806349L19.6451 0.805976L19.6451 0.805996C19.7142 0.798001 19.7833 0.798001 19.8524 0.805997L19.8553 0.806328L19.8552 0.806349L34.2291 2.68119L34.2295 2.68125C34.2702 2.68665 34.3032 2.69883 34.3224 2.7063L34.3356 2.71158L34.3451 2.71538C34.3483 2.71661 34.3502 2.71735 34.3515 2.71778C34.3529 2.71817 34.3548 2.71863 34.357 2.71919C34.3789 2.72472 34.4337 2.73856 34.4784 2.76039M19.6422 6.19258L34.6283 2.86087L34.5025 3.01639L34.6226 2.85644C34.6228 2.8566 34.6233 2.85695 34.6241 2.8575M19.6422 6.19258L19.6448 6.19288M19.6422 6.19258L19.6448 6.19288M34.4784 2.76039C34.4785 2.76045 34.4786 2.76052 34.4788 2.76058L34.3907 2.94015L34.478 2.76019C34.4781 2.76026 34.4782 2.76032 34.4784 2.76039ZM34.4784 2.76039C34.5399 2.79031 34.5893 2.82943 34.6241 2.8575M34.6241 2.8575C34.6244 2.85769 34.6247 2.85791 34.625 2.85814M34.6241 2.8575L34.625 2.85814M19.6448 6.19288C19.6781 6.19678 19.7128 6.19922 19.7487 6.19922C19.785 6.19922 19.8197 6.19666 19.8521 6.19295L19.8521 6.19297M19.6448 6.19288L19.8521 6.19297M19.8521 6.19297L19.8553 6.19256M19.8521 6.19297L19.8553 6.19256M19.8553 6.19256L33.2976 4.43909V6.3058C33.0951 6.53923 32.8017 6.91229 32.5503 7.37048C32.2779 7.86704 32.0477 8.47652 32.0477 9.12406C32.0477 9.87363 32.3564 10.3998 32.7782 10.7341C33.1928 11.0626 33.707 11.1989 34.1225 11.1989C34.538 11.1989 35.0522 11.0626 35.4668 10.7341C35.8886 10.3998 36.1973 9.87363 36.1973 9.12406C36.1973 8.47653 35.9671 7.86705 35.6947 7.37048C35.4433 6.9123 35.1499 6.53923 34.9474 6.30579V3.49946C34.9474 3.38822 34.9237 3.28463 34.8859 3.19125L34.8853 3.1898M19.8553 6.19256L34.8853 3.1898M34.8853 3.1898C34.872 3.15755 34.8553 3.13247 34.846 3.11864L34.8393 3.10899L34.8347 3.10221L34.832 3.09823C34.8318 3.09779 34.8316 3.09748 34.8315 3.09728L34.8313 3.09702L34.8307 3.09589C34.8078 3.05479 34.7732 2.99267 34.7221 2.93773L34.7209 2.93642M34.8853 3.1898L34.7209 2.93642M34.7209 2.93642C34.6873 2.90095 34.6369 2.86628 34.625 2.85814M34.7209 2.93642L34.625 2.85814M34.5475 9.12399C34.5475 9.3231 34.4831 9.41332 34.4205 9.46151C34.349 9.51663 34.244 9.54399 34.1226 9.54878C34.0011 9.54399 33.8961 9.51661 33.8246 9.46149C33.762 9.41329 33.6976 9.32307 33.6976 9.12399C33.6976 8.75511 33.8877 8.33092 34.1226 7.95768C34.3574 8.33098 34.5475 8.75516 34.5475 9.12399ZM11.7524 3.49946L19.7487 2.45628L27.745 3.49946L19.7487 4.5427L11.7524 3.49946Z" fill="#1EB3A6" stroke="#1EB3A6" stroke-width="0.4"/>
<path d="M22.2128 23.5532L22.2132 23.5536C22.5243 23.8755 22.5271 24.3864 22.2072 24.7064L22.2128 23.5532ZM22.2128 23.5532C21.8982 23.2295 21.3819 23.2213 21.0539 23.5274M22.2128 23.5532L21.0539 23.5274M21.0539 23.5274C21.0479 23.5329 21.0219 23.5557 20.9754 23.588C20.9223 23.6249 20.842 23.6743 20.7341 23.7239C20.5191 23.8229 20.1924 23.9232 19.749 23.9232C18.9013 23.9232 18.476 23.5557 18.4469 23.5296C18.125 23.2172 17.6097 23.2212 17.2909 23.54C16.9684 23.8624 16.9684 24.384 17.2909 24.7065L21.0539 23.5274ZM17.2909 24.7065C17.3958 24.8114 18.2111 25.5731 19.749 25.5731C21.2867 25.5731 22.102 24.8117 22.2071 24.7065L17.2909 24.7065Z" fill="#1EB3A6" stroke="#1EB3A6" stroke-width="0.4"/>
<path d="M9.54992 13.4698V12.8739C9.54992 12.4187 9.91865 12.049 10.3748 12.049C10.831 12.049 11.1998 12.4187 11.1998 12.8739V14.1239C11.1998 14.5792 10.831 14.9489 10.3748 14.9489C10.1405 14.9489 9.94992 15.1398 9.94992 15.3738V17.8736C9.94992 18.1076 10.1405 18.2985 10.3748 18.2985C10.7304 18.2985 11.0449 18.5256 11.1571 18.8628C11.1593 18.8692 11.1639 18.8829 11.1707 18.9031C11.1999 18.9897 11.2698 19.1971 11.3656 19.4769C11.4919 19.8457 11.6653 20.3463 11.8569 20.8829C12.2418 21.961 12.6947 23.1689 12.9872 23.7541C13.0315 23.8421 13.6149 24.9828 14.7448 26.0997C15.8754 27.2172 17.5391 28.2977 19.7491 28.2977C21.9591 28.2977 23.6227 27.2172 24.7532 26.0997C25.8832 24.9828 26.4665 23.8422 26.5109 23.7541C26.8032 23.1688 27.2561 21.9609 27.641 20.8828C27.8326 20.3462 28.0061 19.8456 28.1324 19.4769C28.2278 19.1984 28.2976 18.9916 28.327 18.9043C28.3362 18.877 28.3415 18.8614 28.3424 18.8589L28.5308 18.926M9.54992 13.4698L27.9861 24.4918C28.5035 23.4575 29.3902 20.9035 29.7478 19.8523C30.5878 19.5867 31.1981 18.8004 31.1981 17.8736V15.3738C31.1981 14.5219 30.6827 13.7893 29.9482 13.4698V12.874C29.9482 12.4188 29.5795 12.0491 29.1233 12.0491C28.6671 12.0491 28.2984 12.4188 28.2984 12.874V14.1239C28.2984 14.5792 28.6671 14.9489 29.1233 14.9489C29.3576 14.9489 29.5482 15.1398 29.5482 15.3738V17.8736C29.5482 18.1076 29.3576 18.2985 29.1233 18.2985C28.768 18.2985 28.4524 18.5253 28.3409 18.8633L28.5308 18.926M9.54992 13.4698C8.81547 13.7893 8.3 14.5219 8.3 15.3738V17.8736C8.3 18.8004 8.91033 19.5867 9.75037 19.8523C10.1079 20.9036 10.9947 23.4575 11.5121 24.4918L9.54992 13.4698ZM28.5308 18.926C28.6152 18.6704 28.8539 18.4985 29.1233 18.4985C29.4682 18.4985 29.7482 18.2179 29.7482 17.8736V15.3738C29.7482 15.0294 29.4682 14.7489 29.1233 14.7489C28.7777 14.7489 28.4984 14.4689 28.4984 14.1239V12.874C28.4984 12.5291 28.7777 12.2491 29.1233 12.2491C29.4689 12.2491 29.7482 12.5291 29.7482 12.874V13.6058L19.7491 28.4977C24.3099 28.4977 26.5941 24.0337 26.6897 23.8437C27.2535 22.7149 28.3811 19.3698 28.5173 18.9658C28.5255 18.9417 28.5301 18.928 28.5308 18.926ZM19.7491 29.9475C15.3876 29.9475 12.5198 26.5077 11.5121 24.4918L19.7491 29.9475ZM19.7491 29.9475C24.1105 29.9475 26.9783 26.5078 27.986 24.4918L19.7491 29.9475Z" fill="#1EB3A6" stroke="#1EB3A6" stroke-width="0.4"/>
<path d="M10.006 11.1117L10.0067 11.112C10.1808 11.1984 14.0007 13.0733 19.7491 13.0733C25.4976 13.0733 29.3174 11.1984 29.4916 11.112L29.4923 11.1116C29.7717 10.9715 29.9483 10.6863 29.9483 10.3736V5.99902C29.9483 5.54376 29.5796 5.1741 29.1234 5.1741C28.6672 5.1741 28.2984 5.54376 28.2984 5.99902V9.83607C27.1609 10.3042 23.9955 11.4236 19.7491 11.4236C15.5028 11.4236 12.3374 10.3042 11.1998 9.83607V5.99902C11.1998 5.5437 10.8311 5.17402 10.3749 5.17402C9.91873 5.17402 9.55 5.54369 9.55 5.99895V10.3736C9.55 10.6862 9.72659 10.9716 10.006 11.1117Z" fill="#1EB3A6" stroke="#1EB3A6" stroke-width="0.4"/>
</svg>
