<svg width="19" height="26" viewBox="0 0 19 26" fill="none" xmlns="http://www.w3.org/2000/svg">
<path d="M19 10.8333V8.66667H6.57692V2.16667C6.57692 1.59203 6.34595 1.04093 5.93481 0.634602C5.52367 0.228273 4.96605 0 4.38462 0C3.80318 0 3.24556 0.228273 2.83442 0.634602C2.42328 1.04093 2.19231 1.59203 2.19231 2.16667C2.19231 2.7413 2.42328 3.2924 2.83442 3.69873C3.24556 4.10506 3.80318 4.33333 4.38462 4.33333V8.66667H0V10.8333H4.38462V19.7889C4.38462 23.1978 7.17615 25.9567 10.5962 26C14.0162 25.9422 16.7346 23.1689 16.6762 19.7889C16.6762 17.4922 15.58 15.3256 13.7531 13.8956C13.4315 13.6356 13.0954 13.4044 12.73 13.2167C12.4085 13.0722 12.0577 13 11.7069 13C10.6692 13 9.71923 13.5633 9.20769 14.4444C8.93 14.8778 8.78385 15.3833 8.78385 15.8889C8.79846 17.4778 10.0992 18.7778 11.7215 18.7778C12.6277 18.7778 13.4754 18.33 14.0308 17.6222C14.3377 18.3011 14.4838 19.0378 14.4838 19.7889C14.5423 21.9556 12.8177 23.7611 10.5962 23.8333C8.36 23.8333 6.56231 21.9989 6.57692 19.7889V10.8333H19Z" fill="#1EB3A6"/>
</svg>
